<svg preserveAspectRatio="none" width="100%" height="100%" overflow="visible" style="display: block;" viewBox="0 0 42 28" fill="none" xmlns="http://www.w3.org/2000/svg">
<g id="Layer 1-2">
<path id="Vector" d="M36 0H6C2.68629 0 0 2.68629 0 6V22C0 25.3137 2.68629 28 6 28H36C39.3137 28 42 25.3137 42 22V6C42 2.68629 39.3137 0 36 0Z" fill="#1F72CD"/>
<path id="Vector_2" fill-rule="evenodd" clip-rule="evenodd" d="M7.93 10L4 18.45H8.7L9.28 17.1H10.61L11.19 18.45H16.37V17.42L16.83 18.45H19.51L19.97 17.4V18.45H30.74L32.05 17.14L33.28 18.45H38.81L34.87 14.25L38.81 10H33.36L32.09 11.29L30.9 10H19.18L18.17 12.18L17.14 10H12.45V10.99L11.93 10H7.92H7.93ZM24.01 11.2H30.19L32.08 13.19L34.03 11.2H35.92L33.05 14.25L35.92 17.26H33.94L32.05 15.25L30.09 17.26H24V11.2H24.01ZM25.54 13.56V12.45H29.4L31.08 14.22L29.32 16H25.54V14.79H28.91V13.56H25.54ZM8.84 11.2H11.13L13.74 16.93V11.2H16.25L18.26 15.31L20.12 11.2H22.62V17.27H21.1V12.52L18.87 17.27H17.51L15.28 12.52V17.27H12.15L11.56 15.91H8.36L7.77 17.27H6.09L8.85 11.2H8.84ZM8.9 14.65L9.96 12.23L11.01 14.65H8.9Z" fill="white"/>
</g>
</svg>
