<svg preserveAspectRatio="none" width="100%" height="100%" overflow="visible" style="display: block;" viewBox="0 0 42 28" fill="none" xmlns="http://www.w3.org/2000/svg">
<g id="Group">
<path id="Vector" d="M0 6C0 2.69 2.69 0 6 0H36C39.31 0 42 2.69 42 6V22C42 25.31 39.31 28 36 28H6C2.69 28 0 25.31 0 22V6Z" fill="#1D1D22"/>
<path id="Vector_2" d="M0 6C0 2.69 2.69 0 6 0H36C39.31 0 42 2.69 42 6V22C42 25.31 39.31 28 36 28H6C2.69 28 0 25.31 0 22V6Z" fill="url(#paint0_linear_0_159)"/>
<path id="Vector_3" d="M6 1.17H36C38.67 1.17 40.83 3.33 40.83 6V22C40.83 24.67 38.67 26.83 36 26.83H6C3.33 26.83 1.17 24.67 1.17 22V6C1.17 3.33 3.33 1.17 6 1.17Z" stroke="url(#paint1_linear_0_159)" stroke-width="2.34"/>
<path id="Vector_4" fill-rule="evenodd" clip-rule="evenodd" d="M10 10.23C10.56 10.28 11.13 9.96 11.48 9.55C11.83 9.13 12.05 8.57 12 8C11.5 8.02 10.89 8.32 10.53 8.74C10.21 9.1 9.93 9.68 10 10.23ZM16.7 17.58V8.68H20.13C24.15 8.62 24.1 14.62 20.08 14.54H18.12V17.58H16.7ZM11.99 10.34C11.28 10.28 10.68 10.71 10.09 10.79C9.58 10.75 9.03 10.34 8.46 10.37C5.33 10.54 5.64 14.65 7.04 16.43C7.46 17.02 7.95 17.67 8.61 17.65C9.27 17.61 9.51 17.25 10.23 17.26C10.62 17.26 10.86 17.36 11.1 17.46C12.58 18.34 13.79 15.96 14.06 15.09H14.04C12.51 14.48 12.21 12.23 13.8 11.3C13.21 10.45 12.3 10.36 11.98 10.34H11.99ZM25.72 17.65C26.61 17.65 27.44 17.21 27.81 16.51H27.84V17.58H29.15V13.15C29.27 10.38 23.88 10.36 23.81 13.03H25.09C25.28 11.76 27.92 11.82 27.79 13.24V13.73L26.02 13.83C22.68 13.78 22.68 17.61 25.72 17.64V17.65ZM26.1 16.59C24.42 16.62 24.46 14.72 26.21 14.76L27.79 14.66C27.92 15.74 27.37 16.57 26.1 16.59ZM33.51 17.93C32.92 19.71 31.93 20.15 30.37 19.97V18.9C31.1 19 31.75 18.85 31.98 18L32.11 17.61L29.71 11.13H31.19L32.86 16.39H32.89L34.56 11.13H36L33.51 17.94V17.93ZM18.12 9.84C19.63 9.84 21.7 9.55 21.69 11.6C21.69 13.65 19.63 13.37 18.12 13.37V9.84Z" fill="white"/>
</g>
<defs>
<linearGradient id="paint0_linear_0_159" x1="15.66" y1="-2.77" x2="25.04" y2="26.71" gradientUnits="userSpaceOnUse">
<stop stop-color="#797583" stop-opacity="0.2"/>
<stop offset="1" stop-color="#363567" stop-opacity="0.2"/>
</linearGradient>
<linearGradient id="paint1_linear_0_159" x1="17.43" y1="-6.58" x2="23.36" y2="27.57" gradientUnits="userSpaceOnUse">
<stop stop-opacity="0.2"/>
<stop offset="1" stop-color="white" stop-opacity="0"/>
</linearGradient>
</defs>
</svg>
