<svg preserveAspectRatio="none" width="100%" height="100%" overflow="visible" style="display: block;" viewBox="0 0 42 28" fill="none" xmlns="http://www.w3.org/2000/svg">
<g id="Group">
<path id="Vector" d="M0 6C0 2.69 2.69 0 6 0H36C39.31 0 42 2.69 42 6V22C42 25.31 39.31 28 36 28H6C2.69 28 0 25.31 0 22V6Z" fill="#1D1D22"/>
<path id="Vector_2" d="M0 6C0 2.69 2.69 0 6 0H36C39.31 0 42 2.69 42 6V22C42 25.31 39.31 28 36 28H6C2.69 28 0 25.31 0 22V6Z" fill="url(#paint0_linear_0_191)"/>
<path id="Vector_3" d="M6 1.17H36C38.67 1.17 40.83 3.33 40.83 6V22C40.83 24.67 38.67 26.83 36 26.83H6C3.33 26.83 1.17 24.67 1.17 22V6C1.17 3.33 3.33 1.17 6 1.17Z" stroke="url(#paint1_linear_0_191)" stroke-width="2.34"/>
<path id="Vector_4" fill-rule="evenodd" clip-rule="evenodd" d="M29 14C29 18.42 25.42 22 21 22C10.39 21.58 10.39 6.42 21 6C25.42 6 29 9.58 29 14ZM22.92 11.03C24.03 11.41 24.85 11.98 24.69 13.05C24.57 13.83 24.14 14.21 23.56 14.34C24.35 14.75 24.62 15.53 24.37 16.47C23.89 17.82 22.76 17.94 21.26 17.66L20.89 19.12L20.01 18.9L20.37 17.46C20.14 17.4 19.91 17.34 19.67 17.28L19.31 18.72L18.43 18.5L18.79 17.04L17.01 16.59L17.45 15.58C17.45 15.58 18.1 15.75 18.09 15.74C18.34 15.8 18.45 15.64 18.49 15.53L19.48 11.58C19.49 11.39 19.43 11.16 19.07 11.07C19.08 11.07 18.43 10.91 18.43 10.91L18.66 9.97L20.44 10.41L20.8 8.97L21.68 9.19L21.33 10.6C21.57 10.65 21.81 10.71 22.04 10.77L22.39 9.36L23.27 9.58L22.91 11.02H22.92V11.03ZM20.81 13.43C21.41 13.59 22.72 13.94 22.94 13.03C23.17 12.1 21.9 11.82 21.28 11.68C21.21 11.66 21.15 11.65 21.1 11.64L20.66 13.39C20.66 13.39 20.75 13.41 20.81 13.43ZM20.13 16.26C20.85 16.45 22.42 16.86 22.67 15.86C22.92 14.74 21.23 14.47 20.44 14.28L19.96 16.21C19.96 16.21 20.07 16.24 20.13 16.25V16.26Z" fill="#F7931A"/>
</g>
<defs>
<linearGradient id="paint0_linear_0_191" x1="15.66" y1="-2.77" x2="25.04" y2="26.71" gradientUnits="userSpaceOnUse">
<stop stop-color="#797583" stop-opacity="0.2"/>
<stop offset="1" stop-color="#363567" stop-opacity="0.2"/>
</linearGradient>
<linearGradient id="paint1_linear_0_191" x1="17.43" y1="-6.58" x2="23.36" y2="27.57" gradientUnits="userSpaceOnUse">
<stop stop-opacity="0.2"/>
<stop offset="1" stop-color="white" stop-opacity="0"/>
</linearGradient>
</defs>
</svg>
