<svg preserveAspectRatio="none" width="100%" height="100%" overflow="visible" style="display: block;" viewBox="0 0 42 28" fill="none" xmlns="http://www.w3.org/2000/svg">
<g id="Group">
<path id="Vector" d="M0 6C0 2.69 2.69 0 6 0H36C39.31 0 42 2.69 42 6V22C42 25.31 39.31 28 36 28H6C2.69 28 0 25.31 0 22V6Z" fill="#1D1D22"/>
<path id="Vector_2" d="M0 6C0 2.69 2.69 0 6 0H36C39.31 0 42 2.69 42 6V22C42 25.31 39.31 28 36 28H6C2.69 28 0 25.31 0 22V6Z" fill="url(#paint0_linear_0_164)"/>
<path id="Vector_3" d="M6 1.17H36C38.67 1.17 40.83 3.33 40.83 6V22C40.83 24.67 38.67 26.83 36 26.83H6C3.33 26.83 1.17 24.67 1.17 22V6C1.17 3.33 3.33 1.17 6 1.17Z" stroke="url(#paint1_linear_0_164)" stroke-width="2.34"/>
<path id="Vector_4" fill-rule="evenodd" clip-rule="evenodd" d="M19.84 17.39V13.87C21.01 13.85 22.79 14.09 23.65 13.13L23.78 13.01C24.74 11.99 24.68 10.4 23.65 9.46C23.14 8.96 22.43 8.69 21.71 8.7H18.71V17.39H19.84ZM19.84 12.8V9.76C20.61 9.82 22.25 9.52 22.82 10.19C23.82 11.09 23.08 12.88 21.74 12.8H19.84ZM29.06 11.9C27.96 10.87 25.45 11.05 24.66 12.4L25.66 13.02C26.49 11.65 28.91 12.17 28.71 13.89C27.29 13.13 24.4 13.5 24.45 15.55C24.44 16.11 24.68 16.65 25.12 17.01C26.11 17.89 27.9 17.81 28.66 16.57H28.71V17.39H29.79V13.72C29.79 12.95 29.55 12.34 29.07 11.9H29.06ZM25.98 16.29C25.45 15.91 25.5 15.11 26.06 14.75C26.72 14.25 28.13 14.35 28.69 14.83C28.69 15.3 28.5 15.71 28.13 16.06C27.79 16.39 27.33 16.58 26.86 16.58C26.54 16.58 26.23 16.48 25.98 16.29ZM32.22 20L36 11.44H34.77L33.02 15.71H33L31.21 11.44H29.98L32.46 17.01L31.05 20H32.22Z" fill="white"/>
<path id="Vector_5" d="M15.93 13.1C15.93 12.76 15.9 12.42 15.85 12.09H11.07V14.01H13.81C13.7 14.63 13.33 15.18 12.8 15.53V16.78H14.43C15.39 15.91 15.94 14.63 15.94 13.11L15.93 13.1Z" fill="#4285F4"/>
<path id="Vector_6" d="M11.07 17.98C12.43 17.98 13.59 17.54 14.43 16.77L12.8 15.52C11.27 16.59 8.75 15.77 8.23 13.94H6.55V15.23C7.41 16.91 9.16 17.98 11.07 17.98Z" fill="#34A853"/>
<path id="Vector_7" d="M8.22 13.95C8.01 13.33 8.01 12.66 8.22 12.04V10.76H6.54C5.82 12.17 5.82 13.83 6.54 15.24L8.22 13.96V13.95Z" fill="#FBBC04"/>
<path id="Vector_8" d="M11.07 9.98C11.79 9.97 12.49 10.24 13.01 10.73L14.46 9.3C12.14 7.06 7.93 7.87 6.55 10.76L8.23 12.05C8.63 10.86 9.75 9.98 11.07 9.98Z" fill="#EA4335"/>
</g>
<defs>
<linearGradient id="paint0_linear_0_164" x1="15.66" y1="-2.77" x2="25.04" y2="26.71" gradientUnits="userSpaceOnUse">
<stop stop-color="#797583" stop-opacity="0.2"/>
<stop offset="1" stop-color="#363567" stop-opacity="0.2"/>
</linearGradient>
<linearGradient id="paint1_linear_0_164" x1="17.43" y1="-6.58" x2="23.36" y2="27.57" gradientUnits="userSpaceOnUse">
<stop stop-opacity="0.2"/>
<stop offset="1" stop-color="white" stop-opacity="0"/>
</linearGradient>
</defs>
</svg>
