<svg preserveAspectRatio="none" width="100%" height="100%" overflow="visible" style="display: block;" viewBox="0 0 40 40" fill="none" xmlns="http://www.w3.org/2000/svg">
<path id="Subtract" fill-rule="evenodd" clip-rule="evenodd" d="M9.86157 0H30.1384C35.5848 0 40 4.41517 40 9.86157V30.1384C40 35.5848 35.5848 40 30.1384 40H9.86157C4.41517 40 0 35.5848 0 30.1384V9.86157C0 4.41517 4.41517 0 9.86157 0ZM21.0346 22.3004H25.7199C25.8106 22.3004 25.89 22.2393 25.9132 22.1516L28.3921 12.8003C28.4257 12.6734 28.33 12.5491 28.1988 12.5491H11.3483C11.2175 12.5491 11.122 12.6724 11.1546 12.799L15.1502 28.3009C15.1729 28.3892 15.2526 28.4509 15.3438 28.4509H30.3744C30.4849 28.4509 30.5744 28.5405 30.5744 28.6509V31.8C30.5744 31.9105 30.4849 32 30.3744 32H12.5735C12.4821 32 12.4022 31.938 12.3797 31.8493L8.11867 15.1031C8.09612 15.0145 8.01631 14.9524 7.92484 14.9524H6.25354C6.12425 14.9524 6.02893 14.8316 6.05904 14.7059L7.38851 9.15343C7.41005 9.06345 7.49049 9 7.58301 9H32.7416C32.8724 9 32.968 9.12351 32.9352 9.25014L28.8782 24.9157C28.8553 25.0039 28.7757 25.0655 28.6845 25.0655H18.0887C17.9972 25.0655 17.9174 25.0034 17.8949 24.9147L15.7212 16.3387C15.6891 16.2123 15.7847 16.0895 15.915 16.0895H23.6704C23.8004 16.0895 23.8958 16.2116 23.8644 16.3378L23.0787 19.4955C23.0566 19.5846 22.9765 19.6472 22.8847 19.6472H20.4332C20.3018 19.6472 20.206 19.7718 20.2399 19.8988L20.8414 22.152C20.8647 22.2395 20.944 22.3004 21.0346 22.3004Z" fill="#FFC950"/>
</svg>
