<svg preserveAspectRatio="none" width="100%" height="100%" overflow="visible" style="display: block;" viewBox="0 0 111.004 22.0001" fill="none" xmlns="http://www.w3.org/2000/svg">
<g id="Group">
<path id="Vector" d="M0 21.6737V0.861176H13.5021V4.93235H3.88908V8.52725H9.47278V12.5723H3.88908V17.5961H13.9166V21.6672H0V21.6737Z" fill="white"/>
<path id="Vector_2" d="M17.5615 21.6738V2.04864L21.3957 0V21.6738H17.5615Z" fill="white"/>
<path id="Vector_3" d="M33.2584 21.6738V20.6951C32.533 21.3802 31.5638 22 30.1739 22C27.0651 22 24.5049 19.5012 24.5049 13.675C24.5049 9.00356 26.5592 5.73488 30.1739 5.73488C31.454 5.73488 32.5635 6.26987 33.2584 6.95492V2.04864L37.0926 0V21.6738H33.2584ZM33.2584 10.9413C32.6732 10.0801 31.7893 9.6038 30.6738 9.6038C29.2047 9.6038 28.394 10.9739 28.394 13.5902C28.394 16.8001 29.3937 18.1376 30.8932 18.1376C32.088 18.1376 32.6976 17.6026 33.2523 16.8262V10.9413H33.2584Z" fill="white"/>
<path id="Vector_4" d="M46.7113 21.9995C42.9076 21.9995 40.1279 18.6721 40.1279 13.8832C40.1279 9.0944 42.9076 5.73438 46.7113 5.73438C50.5151 5.73438 53.3252 9.0944 53.3252 13.8832C53.3252 18.6721 50.5212 21.9995 46.7113 21.9995ZM46.7113 9.68811C44.8765 9.68811 44.017 11.4693 44.017 13.8832C44.017 16.2972 44.8765 18.0458 46.7113 18.0458C48.5462 18.0458 49.4361 16.0558 49.4361 13.8832C49.4361 11.5019 48.5462 9.68811 46.7113 9.68811Z" fill="white"/>
<path id="Vector_5" d="M64.8221 10.8494C64.2126 10.2557 63.4628 9.83817 62.5972 9.83817C61.0976 9.83817 60.1223 10.5232 60.1223 13.2308V21.6733H56.2881V6.06059H60.1223V7.10448C60.7928 6.36071 61.7621 5.73438 63.1214 5.73438C64.371 5.73438 65.3159 6.26937 65.8157 6.83699L64.816 10.8494H64.8221Z" fill="white"/>
<path id="Vector_6" d="M75.5199 21.6739V20.63C74.825 21.3999 73.6058 22.0001 72.2404 22.0001C69.5156 22.0001 66.7969 20.219 66.7969 16.4414C66.7969 12.99 69.4058 11.2676 72.7158 11.2676C74.0508 11.2676 74.9103 11.5677 75.5199 11.894V11.1241C75.5199 10.0215 74.825 9.13417 73.4351 9.13417C71.6857 9.13417 70.7713 9.40166 69.4363 10.1781L67.9673 7.32693C69.6619 6.28304 71.0822 5.74805 73.4412 5.74805C76.9707 5.74805 79.3602 7.71187 79.3602 11.2219V21.687H75.526L75.5199 21.6739ZM75.5199 15.13C74.8554 14.6864 74.2154 14.4776 72.8499 14.4776C71.4053 14.4776 70.625 15.1887 70.625 16.4414C70.625 17.544 71.2102 18.5227 72.8499 18.5227C74.0996 18.5227 75.0993 17.8376 75.5199 17.0938V15.13Z" fill="white"/>
<path id="Vector_7" d="M90.942 21.6738V20.6951C90.2227 21.3802 89.2473 22 87.8575 22C84.7487 22 82.1885 19.5012 82.1885 13.675C82.1885 9.00356 84.2427 5.73488 87.8575 5.73488C89.1376 5.73488 90.247 6.26987 90.942 6.95492V2.04864L94.7762 0V21.6738H90.942ZM90.942 10.9413C90.3568 10.0801 89.4668 9.6038 88.3574 9.6038C86.8822 9.6038 86.0776 10.9739 86.0776 13.5902C86.0776 16.8001 87.0773 18.1376 88.5768 18.1376C89.7716 18.1376 90.3811 17.6026 90.9359 16.8262V10.9413H90.942Z" fill="white"/>
<path id="Vector_8" d="M104.39 21.9995C100.586 21.9995 97.8066 18.6721 97.8066 13.8832C97.8066 9.0944 100.586 5.73438 104.39 5.73438C108.194 5.73438 111.004 9.0944 111.004 13.8832C111.004 18.6721 108.2 21.9995 104.39 21.9995ZM104.39 9.68811C102.555 9.68811 101.696 11.4693 101.696 13.8832C101.696 16.2972 102.555 18.0458 104.39 18.0458C106.225 18.0458 107.115 16.0558 107.115 13.8832C107.115 11.5019 106.225 9.68811 104.39 9.68811Z" fill="white"/>
</g>
</svg>
