<svg preserveAspectRatio="none" width="100%" height="100%" overflow="visible" style="display: block;" viewBox="0 0 42 28" fill="none" xmlns="http://www.w3.org/2000/svg">
<g id="Layer 1-2">
<g id="Group">
<path id="Vector" d="M0 6C0 2.69 2.69 0 6 0H36C39.31 0 42 2.69 42 6V22C42 25.31 39.31 28 36 28H6C2.69 28 0 25.31 0 22V6Z" fill="#1D1D22"/>
<path id="Vector_2" d="M0 6C0 2.69 2.69 0 6 0H36C39.31 0 42 2.69 42 6V22C42 25.31 39.31 28 36 28H6C2.69 28 0 25.31 0 22V6Z" fill="url(#paint0_linear_0_206)"/>
<path id="Vector_3" d="M6 1.17H36C38.67 1.17 40.83 3.33 40.83 6V22C40.83 24.67 38.67 26.83 36 26.83H6C3.33 26.83 1.17 24.67 1.17 22V6C1.17 3.33 3.33 1.17 6 1.17Z" stroke="url(#paint1_linear_0_206)" stroke-width="2.34"/>
</g>
<path id="Vector_4" d="M23.38 14.05C23.38 18.5 19.71 22.1 15.19 22.1C4.33 21.67 4.33 6.42 15.19 5.99C19.71 5.99 23.38 9.6 23.38 14.04V14.05Z" fill="#ED0006"/>
<path id="Vector_5" d="M34 14.05C34 18.5 30.33 22.1 25.81 22.1C14.95 21.67 14.95 6.42 25.81 5.99C30.33 5.99 34 9.6 34 14.04V14.05Z" fill="#F9A000"/>
<path id="Vector_6" fill-rule="evenodd" clip-rule="evenodd" d="M20.5 20.18C16.72 17.24 16.72 10.86 20.5 7.92C24.28 10.86 24.28 17.24 20.5 20.18Z" fill="#FF5E00"/>
</g>
<defs>
<linearGradient id="paint0_linear_0_206" x1="15.66" y1="-2.77" x2="25.04" y2="26.71" gradientUnits="userSpaceOnUse">
<stop stop-color="#797583" stop-opacity="0.2"/>
<stop offset="1" stop-color="#363567" stop-opacity="0.2"/>
</linearGradient>
<linearGradient id="paint1_linear_0_206" x1="17.43" y1="-6.58" x2="23.36" y2="27.57" gradientUnits="userSpaceOnUse">
<stop stop-opacity="0.2"/>
<stop offset="1" stop-color="white" stop-opacity="0"/>
</linearGradient>
</defs>
</svg>
