<svg preserveAspectRatio="none" width="100%" height="100%" overflow="visible" style="display: block;" viewBox="0 0 24 24" fill="none" xmlns="http://www.w3.org/2000/svg">
<g id="24 / reddit">
<path id="Vector" d="M18.3672 3.00195C18.6533 2.9884 18.9378 3.04992 19.1914 3.18067C19.4451 3.31153 19.6586 3.50694 19.8096 3.7461C19.9606 3.98524 20.0442 4.25972 20.0508 4.54102C20.0573 4.82228 19.9864 5.10006 19.8467 5.3457C19.707 5.59135 19.5032 5.79637 19.2559 5.93848C19.0086 6.08053 18.7269 6.15503 18.4404 6.1543C17.5756 6.1543 16.8803 5.48638 16.834 4.65235L13.4824 3.95508L12.4639 8.68652C14.8264 8.7624 16.942 9.47483 18.4863 10.5664C18.723 10.3445 19.0065 10.1765 19.3164 10.0732C19.6263 9.97002 19.9559 9.93406 20.2812 9.96875C20.6067 10.0035 20.921 10.1082 21.2012 10.2744C21.4812 10.4406 21.7207 10.665 21.9033 10.9316C22.0859 11.1983 22.2067 11.501 22.2578 11.8184C22.3088 12.1358 22.2892 12.4606 22.1992 12.7695C22.1091 13.0786 21.9507 13.3645 21.7363 13.6074C21.522 13.8502 21.2566 14.0443 20.958 14.1758C20.9889 14.388 21.0039 14.6154 21.0039 14.8428C21.0039 18.2396 16.973 21 12 21C7.02705 20.9999 2.99609 18.2395 2.99609 14.8428C2.99611 14.6154 3.0121 14.388 3.04297 14.1758C2.25534 13.827 1.7139 13.0538 1.71387 12.1592C1.71158 11.7245 1.84073 11.2988 2.08398 10.9355C2.32732 10.5723 2.67457 10.2873 3.08203 10.1172C3.48961 9.94707 3.93968 9.89851 4.375 9.97852C4.81026 10.0585 5.212 10.2631 5.5293 10.5664C7.08904 9.45963 9.25104 8.76241 11.6445 8.68652L12.7881 3.39453C12.8035 3.28838 12.8653 3.19686 12.958 3.15137C13.0506 3.09087 13.1586 3.07567 13.2666 3.09082L17.0039 3.87988C17.1307 3.62752 17.3238 3.41214 17.5635 3.25781C17.8031 3.10351 18.081 3.01557 18.3672 3.00195Z" fill="white"/>
</g>
</svg>
