<svg preserveAspectRatio="none" width="100%" height="100%" overflow="visible" style="display: block;" viewBox="0 0 24 24" fill="none" xmlns="http://www.w3.org/2000/svg">
<g id="24 / tiktok">
<path id="Vector" d="M16.6939 5.82C15.9964 5.03962 15.612 4.03743 15.6122 3H12.4592V15.4C12.4349 16.071 12.1458 16.7066 11.6528 17.1729C11.1599 17.6393 10.5015 17.8999 9.81633 17.9C8.36735 17.9 7.16327 16.74 7.16327 15.3C7.16327 13.58 8.85714 12.29 10.602 12.82V9.66C7.08163 9.2 4 11.88 4 15.3C4 18.63 6.81633 21 9.80612 21C13.0102 21 15.6122 18.45 15.6122 15.3V9.01C16.8908 9.90985 18.4259 10.3926 20 10.39V7.3C20 7.3 18.0816 7.39 16.6939 5.82Z" fill="white"/>
</g>
</svg>
