<svg preserveAspectRatio="none" width="100%" height="100%" overflow="visible" style="display: block;" viewBox="0 0 42 28" fill="none" xmlns="http://www.w3.org/2000/svg">
<g id="Layer 1-2">
<path id="Vector" d="M36 0H6C2.68629 0 0 2.68629 0 6V22C0 25.3137 2.68629 28 6 28H36C39.3137 28 42 25.3137 42 22V6C42 2.68629 39.3137 0 36 0Z" fill="#00579F"/>
<path id="Vector_2" d="M17.97 18.76H15.6L17.09 9.83H19.46L17.97 18.76Z" fill="white"/>
<path id="Vector_3" d="M26.58 10.05C24.33 9.06 20.35 9.99 20.44 12.62C20.42 13.9 21.62 14.61 22.52 15.04C23.44 15.48 23.75 15.76 23.75 16.15C23.5 17.55 20.98 16.98 20.1 16.55L19.79 16.41L19.46 18.41C21.84 19.45 26.31 18.86 26.24 15.84C26.24 14.82 25.61 14.04 24.25 13.41C23.42 13 22.91 12.73 22.91 12.31C22.91 11.93 23.34 11.54 24.28 11.54C25.05 11.52 25.62 11.7 26.05 11.88L26.26 11.97L26.58 10.04V10.05Z" fill="white"/>
<path id="Vector_4" d="M29.73 15.6C29.93 15.09 30.68 13.1 30.68 13.1C30.68 13.12 30.88 12.58 30.99 12.25C31.15 12.96 31.47 14.51 31.7 15.6H29.73ZM32.67 9.83H30.83C30.26 9.83 29.83 9.99 29.59 10.57L26.06 18.76H28.55C28.55 18.76 28.96 17.66 29.05 17.42H32.1C32.17 17.73 32.38 18.76 32.38 18.76H34.58L32.66 9.83H32.67Z" fill="white"/>
<path id="Vector_5" d="M13.61 9.83L11.28 15.92L11.03 14.69C10.6 13.27 9.25 11.72 7.75 10.95L9.88 18.76H12.39L16.12 9.84H13.61V9.83Z" fill="white"/>
<path id="Vector_6" d="M9.13 9.83H5.31L5.27 10.01C8.25 10.75 10.22 12.54 11.04 14.68L10.21 10.58C10.07 10.01 9.65 9.85 9.14 9.83H9.13Z" fill="#FAA61A"/>
</g>
</svg>
