<svg preserveAspectRatio="none" width="100%" height="100%" overflow="visible" style="display: block;" viewBox="0 0 24 24" fill="none" xmlns="http://www.w3.org/2000/svg">
<g id="24 / youtube">
<path id="Vector" d="M22.5525 5.76754C22.4273 5.23665 22.1826 4.75249 21.8428 4.36326C21.503 3.97402 21.0799 3.69329 20.6156 3.54899C18.8942 3.0088 12.0076 3.00001 12.0076 3.00001C12.0076 3.00001 5.12209 2.99122 3.3996 3.50754C2.93565 3.65847 2.51344 3.94318 2.17349 4.33432C1.83355 4.72546 1.5873 5.20991 1.45838 5.74116C1.0044 7.70845 1 11.7888 1 11.7888C1 11.7888 0.995605 15.8892 1.44629 17.8364C1.69911 18.913 2.44108 19.7635 3.38422 20.0537C5.12319 20.5939 11.9911 20.6026 11.9911 20.6026C11.9911 20.6026 18.8778 20.6114 20.5991 20.0964C21.0636 19.9523 21.487 19.6722 21.8277 19.2838C22.1683 18.8954 22.4144 18.412 22.5415 17.8816C22.9965 15.9156 22.9998 11.8365 22.9998 11.8365C22.9998 11.8365 23.0218 7.73483 22.5525 5.76754ZM9.80477 15.5688L9.81027 8.03131L15.5339 11.8064L9.80477 15.5688Z" fill="white"/>
</g>
</svg>
