<svg preserveAspectRatio="none" width="100%" height="100%" overflow="visible" style="display: block;" viewBox="0 0 36 24" fill="none" xmlns="http://www.w3.org/2000/svg">
<g id="Apple Pay" clip-path="url(#clip0_0_211)">
<path id="Vector" d="M5.14258 0.5H30.8574C33.4182 0.500151 35.4998 2.5818 35.5 5.14258V18.8574C35.4998 21.4182 33.4182 23.4998 30.8574 23.5H5.14258C2.5818 23.4998 0.500151 21.4182 0.5 18.8574V5.14258C0.500147 2.66171 2.4539 0.630343 4.9043 0.505859L5.14258 0.5Z" fill="var(--fill-0, #F4F4F4)" stroke="var(--stroke-0, #E7E7E7)"/>
<path id="Vector_2" fill-rule="evenodd" clip-rule="evenodd" d="M8.5527 8.76742C9.03311 8.81025 9.52209 8.53613 9.82234 8.18491C10.1226 7.82513 10.3113 7.34542 10.2684 6.85714C9.8395 6.87428 9.3162 7.13126 9.00737 7.49105C8.73286 7.79943 8.49265 8.29628 8.5527 8.76742ZM14.3004 15.0636V7.43965H17.2429C20.6915 7.38825 20.6486 12.528 17.2 12.4595H15.5186V15.0636H14.3004ZM10.2599 8.86165C9.65077 8.81025 9.13605 9.1786 8.62991 9.24713C8.1924 9.21287 7.72058 8.86165 7.2316 8.88735C4.54648 9.03297 4.81242 12.5537 6.01343 14.0785C6.37373 14.5839 6.79409 15.1407 7.36028 15.1236C7.92646 15.0893 8.13235 14.7809 8.75001 14.7895C9.08458 14.7895 9.29047 14.8752 9.49635 14.9608C10.766 15.7147 11.804 13.6759 12.0356 12.9306H12.0185C10.7059 12.4081 10.4486 10.4807 11.8126 9.68401C11.3064 8.95588 10.5258 8.87878 10.2513 8.86165H10.2599ZM22.0383 15.1236C22.8018 15.1236 23.5138 14.7467 23.8312 14.147H23.857V15.0636H24.9808V11.2688C25.0837 8.89591 20.4598 8.87878 20.3998 11.166H21.4979C21.6609 10.0781 23.9256 10.1295 23.8141 11.3459V11.7656L22.2957 11.8513C19.4304 11.8084 19.4304 15.0893 22.0383 15.115V15.1236ZM22.3643 14.2156C20.9231 14.2413 20.9574 12.6137 22.4587 12.6479L23.8141 12.5623C23.9256 13.4874 23.4538 14.1984 22.3643 14.2156ZM28.7211 15.3634C28.2149 16.8882 27.3656 17.2652 26.0274 17.111V16.1944C26.6536 16.28 27.2112 16.1515 27.4085 15.4234L27.5201 15.0893L25.4612 9.53838H26.7308L28.1635 14.0442H28.1892L29.6218 9.53838H30.8571L28.7211 15.372V15.3634ZM15.5186 8.43334C16.8139 8.43334 18.5897 8.18491 18.5811 9.941C18.5811 11.6971 16.8139 11.4572 15.5186 11.4572V8.43334Z" fill="var(--fill-0, #14131A)"/>
</g>
<defs>
<clipPath id="clip0_0_211">
<rect width="36" height="24" fill="white"/>
</clipPath>
</defs>
</svg>
