<svg preserveAspectRatio="none" width="100%" height="100%" overflow="visible" style="display: block;" viewBox="0 0 36 24" fill="none" xmlns="http://www.w3.org/2000/svg">
<g id="Google Pay" clip-path="url(#clip0_0_167)">
<path id="Vector" d="M5.14258 0.5H30.8574C33.4182 0.500151 35.4998 2.5818 35.5 5.14258V18.8574C35.4998 21.4182 33.4182 23.4998 30.8574 23.5H5.14258C2.5818 23.4998 0.500151 21.4182 0.5 18.8574V5.14258C0.500147 2.66171 2.4539 0.630343 4.9043 0.505859L5.14258 0.5Z" fill="var(--fill-0, #F4F4F4)" stroke="var(--stroke-0, #E7E7E7)"/>
<path id="Vector_2" fill-rule="evenodd" clip-rule="evenodd" d="M17.0057 14.9057V11.8885C18.0085 11.8714 19.5343 12.0771 20.2714 11.2543L20.3828 11.1514C21.2057 10.2771 21.1543 8.91426 20.2714 8.10855C19.8343 7.67998 19.2257 7.44855 18.6085 7.45712H16.0371V14.9057H17.0057ZM17.0057 10.9714V8.36569C17.6657 8.41712 19.0714 8.15998 19.56 8.73426C20.4171 9.50569 19.7828 11.04 18.6343 10.9714H17.0057ZM24.9085 10.2C23.9657 9.31712 21.8143 9.47141 21.1371 10.6285L21.9943 11.16C22.7057 9.98569 24.78 10.4314 24.6085 11.9057C23.3914 11.2543 20.9143 11.5714 20.9571 13.3286C20.9485 13.8086 21.1543 14.2714 21.5314 14.58C22.38 15.3343 23.9143 15.2657 24.5657 14.2028H24.6085V14.9057H25.5343V11.76C25.5343 11.1 25.3285 10.5771 24.9171 10.2H24.9085ZM22.2685 13.9628C21.8143 13.6371 21.8571 12.9514 22.3371 12.6428C22.9028 12.2143 24.1114 12.3 24.5914 12.7114C24.5914 13.1143 24.4285 13.4657 24.1114 13.7657C23.82 14.0485 23.4257 14.2114 23.0228 14.2114C22.7485 14.2114 22.4828 14.1257 22.2685 13.9628ZM27.6171 17.1428L30.8571 9.80569H29.8028L28.3028 13.4657H28.2857L26.7514 9.80569H25.6971L27.8228 14.58L26.6143 17.1428H27.6171Z" fill="var(--fill-0, #14131A)"/>
<path id="Vector_3" d="M13.6543 11.2285C13.6543 10.9371 13.6286 10.6457 13.5858 10.3628H9.48863V12.0085H11.8372C11.7429 12.54 11.4258 13.0114 10.9715 13.3114V14.3828H12.3686C13.1915 13.6371 13.6629 12.54 13.6629 11.2371L13.6543 11.2285Z" fill="var(--fill-0, #4285F4)"/>
<path id="Vector_4" d="M9.48861 15.4114C10.6543 15.4114 11.6486 15.0342 12.3686 14.3742L10.9715 13.3028C9.66004 14.22 7.50004 13.5171 7.05433 11.9485H5.61433V13.0542C6.35147 14.4942 7.85147 15.4114 9.48861 15.4114Z" fill="var(--fill-0, #34A853)"/>
<path id="Vector_5" d="M7.04571 11.9572C6.86571 11.4257 6.86571 10.8514 7.04571 10.32V9.22287H5.60571C4.98857 10.4314 4.98857 11.8543 5.60571 13.0629L7.04571 11.9657V11.9572Z" fill="var(--fill-0, #FBBC04)"/>
<path id="Vector_6" d="M9.48861 8.55424C10.1058 8.54567 10.7058 8.7771 11.1515 9.1971L12.3943 7.97139C10.4058 6.05139 6.79718 6.74567 5.61433 9.22282L7.05433 10.3285C7.39718 9.30853 8.35718 8.55424 9.48861 8.55424Z" fill="var(--fill-0, #EA4335)"/>
</g>
<defs>
<clipPath id="clip0_0_167">
<rect width="36" height="24" fill="white"/>
</clipPath>
</defs>
</svg>
