<svg preserveAspectRatio="none" width="100%" height="100%" overflow="visible" style="display: block;" viewBox="0 0 20 20" fill="none" xmlns="http://www.w3.org/2000/svg">
<g id="Icon">
<path id="Vector" fill-rule="evenodd" clip-rule="evenodd" d="M10.5711 1.75537C10.1996 1.6371 9.80038 1.6371 9.42893 1.75537L3.80393 3.54764C3.42533 3.66818 3.095 3.90541 2.86063 4.22506C2.62625 4.54472 2.49997 4.93027 2.5 5.32605V9.08129C2.5 10.7519 2.84286 12.4759 3.89607 14.0762C4.94929 15.6743 6.66571 17.0772 9.2875 18.1888C9.51283 18.2842 9.75516 18.3333 10 18.3333C10.2448 18.3333 10.4872 18.2842 10.7125 18.1888C13.3343 17.0772 15.0507 15.6743 16.1039 14.0762C17.1571 12.4759 17.5 10.7519 17.5 9.08129V5.32605C17.5 4.93027 17.3737 4.54472 17.1394 4.22506C16.905 3.90541 16.5747 3.66818 16.1961 3.54764L10.5711 1.75537ZM9.9175 3.27987C9.9708 3.26281 10.0281 3.26281 10.0814 3.27987L15.7064 5.07214C15.7605 5.08933 15.8077 5.12318 15.8412 5.16882C15.8747 5.21446 15.8928 5.26951 15.8929 5.32605V9.08129C15.8929 10.53 15.5982 11.9255 14.7604 13.1993C13.9204 14.473 12.4879 15.6956 10.0825 16.7166C10.0564 16.7274 10.0283 16.733 10 16.733C9.97168 16.733 9.94364 16.7274 9.9175 16.7166C7.51214 15.6967 6.07964 14.472 5.23964 13.1982C4.40179 11.9255 4.10714 10.5322 4.10714 9.08129V5.32605C4.10741 5.2697 4.12559 5.21488 4.15908 5.16945C4.19258 5.12403 4.23966 5.09034 4.29357 5.07321L9.91857 3.28093L9.9175 3.27987ZM13.5143 8.31317C13.6562 8.16149 13.7335 7.96088 13.7298 7.75359C13.7262 7.54631 13.6418 7.34853 13.4946 7.20194C13.3474 7.05534 13.1487 6.97137 12.9406 6.96771C12.7324 6.96405 12.5309 7.041 12.3786 7.18233L9.19643 10.3508L8.15714 9.31599C8.08358 9.23738 7.99486 9.17433 7.89629 9.1306C7.79772 9.08686 7.69131 9.06335 7.58342 9.06145C7.47552 9.05956 7.36835 9.07932 7.26829 9.11956C7.16823 9.1598 7.07734 9.2197 7.00103 9.29568C6.92472 9.37166 6.86457 9.46216 6.82415 9.56179C6.78374 9.66142 6.76389 9.76813 6.76579 9.87557C6.7677 9.983 6.79131 10.089 6.83523 10.1871C6.87915 10.2852 6.94248 10.3736 7.02143 10.4468L8.62857 12.0471C8.77924 12.1969 8.98348 12.2811 9.19643 12.2811C9.40938 12.2811 9.61362 12.1969 9.76429 12.0471L13.5143 8.31317Z" fill="var(--fill-0, #4783FF)"/>
</g>
</svg>
