<svg preserveAspectRatio="none" width="100%" height="100%" overflow="visible" style="display: block;" viewBox="0 0 20 20" fill="none" xmlns="http://www.w3.org/2000/svg">
<g id="Icon">
<path id="Vector" d="M10.0008 2.50021C10.6852 2.49035 11.366 2.60103 12.0044 2.82654C12.6459 3.05317 13.2331 3.39245 13.7321 3.82508C14.2311 4.25777 14.6325 4.77625 14.9105 5.35177C15.1884 5.9273 15.3377 6.54777 15.3483 7.17713V7.85258C15.3569 7.85241 15.3657 7.85177 15.3743 7.85177H16.5682C17.0255 7.85177 17.4711 8.01371 17.8044 8.31238C18.1388 8.6121 18.3333 9.0266 18.3333 9.46554V11.6058C18.3332 12.0446 18.1387 12.4585 17.8044 12.7582C17.4711 13.0569 17.0255 13.2188 16.5682 13.2188H15.3743C15.3651 13.2188 15.3559 13.2174 15.3467 13.2172V13.4784C15.3467 14.2012 15.0253 14.8872 14.467 15.3876C14.0293 15.7797 13.4734 16.0324 12.88 16.1233C12.7833 16.4397 12.5993 16.7294 12.3413 16.9607C11.9522 17.3093 11.4315 17.5001 10.8952 17.5002H9.10319C8.56691 17.5001 8.04622 17.3093 7.65706 16.9607C7.26663 16.6108 7.0402 16.1286 7.0402 15.6187C7.04026 15.1089 7.2667 14.6274 7.65706 14.2776C8.04624 13.9288 8.56682 13.7381 9.10319 13.738H10.8952C11.4315 13.7381 11.9521 13.9288 12.3413 14.2776C12.5735 14.4857 12.7461 14.7409 12.8491 15.0206C13.1654 14.9474 13.4548 14.8019 13.6849 14.5957C14.0222 14.2934 14.2049 13.8908 14.2049 13.4784V11.0704C14.2049 11.0649 14.2064 11.0595 14.2065 11.0541V7.19015C14.1979 6.71462 14.0847 6.24447 13.8729 5.80587C13.6603 5.36582 13.3523 4.96508 12.9639 4.6283C12.5754 4.29147 12.1145 4.02543 11.6073 3.84624C11.1 3.66706 10.5574 3.57869 10.0106 3.58745C10.0042 3.58755 9.99747 3.58755 9.99105 3.58745C9.44423 3.57867 8.90161 3.66707 8.39437 3.84624C7.88716 4.02541 7.42622 4.29151 7.03776 4.6283C6.64934 4.96508 6.34048 5.36582 6.12793 5.80587C5.91617 6.2444 5.80373 6.71471 5.79508 7.19015V10.0002C5.79508 10.0051 5.79359 10.01 5.79346 10.0149V12.1405C5.79346 12.4374 5.66175 12.7151 5.43945 12.9144C5.21815 13.1128 4.9246 13.2188 4.62565 13.2188H3.4318C2.97449 13.2188 2.52891 13.0569 2.19564 12.7582C1.86134 12.4585 1.66677 12.0446 1.66667 11.6058V9.46473C1.66678 9.02595 1.86134 8.61201 2.19564 8.31238C2.52891 8.01371 2.97449 7.85177 3.4318 7.85177H4.62565C4.63485 7.85177 4.64414 7.85238 4.65332 7.85258V7.17713C4.66393 6.54774 4.81319 5.92733 5.09115 5.35177C5.36907 4.77637 5.76983 4.25772 6.26872 3.82508C6.76769 3.39244 7.35569 3.05317 7.99723 2.82654C8.63565 2.60106 9.31642 2.49034 10.0008 2.50021Z" fill="var(--fill-0, #4783FF)"/>
</g>
</svg>
