<svg preserveAspectRatio="none" width="100%" height="100%" overflow="visible" style="display: block;" viewBox="0 0 20 20" fill="none" xmlns="http://www.w3.org/2000/svg">
<g id="Icon">
<path id="Vector" d="M13.4479 1.73796C13.5517 1.79706 13.632 1.88898 13.6758 1.99871C13.7195 2.10844 13.724 2.22949 13.6887 2.34209L11.7786 8.43757H15.3028C15.4064 8.43753 15.5077 8.46728 15.5943 8.52314C15.6808 8.57901 15.7488 8.65854 15.7899 8.75192C15.8309 8.84531 15.8433 8.94846 15.8253 9.04864C15.8074 9.14881 15.7599 9.24164 15.6889 9.31565L7.20434 18.1693C7.12225 18.255 7.013 18.3109 6.89442 18.3279C6.77583 18.3449 6.65489 18.3219 6.55132 18.2627C6.44775 18.2035 6.36764 18.1116 6.32406 18.0019C6.28048 17.8923 6.276 17.7714 6.31135 17.6589L8.22143 11.5624H4.69716C4.59359 11.5624 4.49228 11.5327 4.40572 11.4768C4.31917 11.421 4.25117 11.3414 4.21011 11.248C4.16906 11.1547 4.15674 11.0515 4.17469 10.9513C4.19264 10.8512 4.24007 10.7583 4.31112 10.6843L12.7957 1.83066C12.8777 1.74504 12.9867 1.68918 13.1051 1.67216C13.2236 1.65514 13.3444 1.67796 13.4479 1.73691V1.73796Z" fill="var(--fill-0, #4783FF)"/>
</g>
</svg>
