<svg preserveAspectRatio="none" width="100%" height="100%" overflow="visible" style="display: block;" viewBox="0 0 160 40" fill="none" xmlns="http://www.w3.org/2000/svg">
<g id="Logo">
<path id="Eldorado icon" fill-rule="evenodd" clip-rule="evenodd" d="M9.86157 0H30.1384C35.5848 0 40 4.41517 40 9.86157V30.1384C40 35.5848 35.5848 40 30.1384 40H9.86157C4.41517 40 0 35.5848 0 30.1384V9.86157C0 4.41517 4.41517 0 9.86157 0ZM21.586 22.8787H26.4557C26.5465 22.8787 26.626 22.8175 26.6491 22.7296L29.2244 12.9543C29.2578 12.8275 29.1621 12.7034 29.031 12.7034H11.5364C11.4058 12.7034 11.3102 12.8265 11.3426 12.953L15.4907 29.1463C15.5133 29.2348 15.5931 29.2966 15.6844 29.2966H31.2846C31.3951 29.2966 31.4846 29.3862 31.4846 29.4966V32.8C31.4846 32.9105 31.3951 33 31.2846 33H12.8115C12.7199 33 12.64 32.9378 12.6176 32.849L8.19556 15.3622C8.17311 15.2734 8.09323 15.2113 8.00166 15.2113H6.25318C6.124 15.2113 6.02871 15.0906 6.05861 14.965L7.44146 9.15372C7.4629 9.06361 7.54341 9.00002 7.63603 9.00002H33.742C33.8727 9.00002 33.9683 9.1233 33.9357 9.24987L29.7239 25.6139C29.7011 25.7023 29.6215 25.7641 29.5302 25.7641H18.531C18.4393 25.7641 18.3594 25.7018 18.337 25.6129L16.0784 16.6466C16.0466 16.5203 16.1421 16.3978 16.2724 16.3978H24.3347C24.4646 16.3978 24.56 16.5197 24.5288 16.6458L23.7097 19.9581C23.6876 20.0474 23.6075 20.1101 23.5156 20.1101H20.9577C20.8264 20.1101 20.7307 20.2345 20.7644 20.3614L21.3927 22.7299C21.4159 22.8176 21.4953 22.8787 21.586 22.8787Z" fill="var(--fill-0, #FFC950)"/>
<g id="Vector">
<path d="M48 30.6744V9.86184H61.6233V13.933H51.924V17.5279H57.5578V21.573H51.924V26.5967H62.0415V30.6679H48V30.6744Z" fill="var(--fill-0, #14131A)"/>
<path d="M65.7194 30.6738V11.0486L69.588 9V30.6738H65.7194Z" fill="var(--fill-0, #14131A)"/>
<path d="M81.557 30.6738V29.6951C80.8251 30.3802 79.8472 31 78.4449 31C75.3081 31 72.7249 28.5012 72.7249 22.675C72.7249 18.0036 74.7977 14.7349 78.4449 14.7349C79.7365 14.7349 80.8559 15.2699 81.557 15.9549V11.0486L85.4257 9V30.6738H81.557ZM81.557 19.9413C80.9666 19.0801 80.0748 18.6038 78.9492 18.6038C77.467 18.6038 76.649 19.9739 76.649 22.5902C76.649 25.8001 77.6576 27.1376 79.1706 27.1376C80.3761 27.1376 80.9912 26.6026 81.5509 25.8262V19.9413H81.557Z" fill="var(--fill-0, #14131A)"/>
<path d="M95.1312 30.9998C91.2933 30.9998 88.4887 27.6724 88.4887 22.8835C88.4887 18.0947 91.2933 14.7346 95.1312 14.7346C98.9691 14.7346 101.804 18.0947 101.804 22.8835C101.804 27.6724 98.9752 30.9998 95.1312 30.9998ZM95.1312 18.6884C93.2799 18.6884 92.4127 20.4695 92.4127 22.8835C92.4127 25.2975 93.2799 27.046 95.1312 27.046C96.9825 27.046 97.8805 25.0561 97.8805 22.8835C97.8805 20.5021 96.9825 18.6884 95.1312 18.6884Z" fill="var(--fill-0, #14131A)"/>
<path d="M113.404 19.8497C112.789 19.256 112.033 18.8384 111.159 18.8384C109.646 18.8384 108.662 19.5235 108.662 22.2311V30.6736H104.794V15.0609H108.662V16.1048C109.339 15.361 110.317 14.7346 111.688 14.7346C112.949 14.7346 113.903 15.2696 114.407 15.8373L113.398 19.8497H113.404Z" fill="var(--fill-0, #14131A)"/>
<path d="M124.198 30.6736V29.6297C123.497 30.3996 122.267 30.9998 120.889 30.9998C118.14 30.9998 115.397 29.2187 115.397 25.4411C115.397 21.9897 118.029 20.2673 121.369 20.2673C122.716 20.2673 123.583 20.5674 124.198 20.8937V20.1238C124.198 19.0212 123.497 18.1339 122.095 18.1339C120.33 18.1339 119.407 18.4014 118.06 19.1778L116.578 16.3266C118.288 15.2827 119.721 14.7478 122.101 14.7478C125.662 14.7478 128.073 16.7116 128.073 20.2217V30.6867H124.204L124.198 30.6736ZM124.198 24.1297C123.528 23.6861 122.882 23.4773 121.504 23.4773C120.047 23.4773 119.259 24.1884 119.259 25.4411C119.259 26.5437 119.85 27.5224 121.504 27.5224C122.765 27.5224 123.774 26.8373 124.198 26.0935V24.1297Z" fill="var(--fill-0, #14131A)"/>
<path d="M139.759 30.6738V29.6951C139.033 30.3802 138.049 31 136.647 31C133.51 31 130.927 28.5012 130.927 22.675C130.927 18.0036 132.999 14.7349 136.647 14.7349C137.938 14.7349 139.058 15.2699 139.759 15.9549V11.0486L143.627 9V30.6738H139.759ZM139.759 19.9413C139.168 19.0801 138.27 18.6038 137.151 18.6038C135.663 18.6038 134.851 19.9739 134.851 22.5902C134.851 25.8001 135.859 27.1376 137.372 27.1376C138.578 27.1376 139.193 26.6026 139.753 25.8262V19.9413H139.759Z" fill="var(--fill-0, #14131A)"/>
<path d="M153.327 30.9998C149.489 30.9998 146.684 27.6724 146.684 22.8835C146.684 18.0947 149.489 14.7346 153.327 14.7346C157.165 14.7346 160 18.0947 160 22.8835C160 27.6724 157.171 30.9998 153.327 30.9998ZM153.327 18.6884C151.475 18.6884 150.608 20.4695 150.608 22.8835C150.608 25.2975 151.475 27.046 153.327 27.046C155.178 27.046 156.076 25.0561 156.076 22.8835C156.076 20.5021 155.178 18.6884 153.327 18.6884Z" fill="var(--fill-0, #14131A)"/>
</g>
</g>
</svg>
