<svg preserveAspectRatio="none" width="100%" height="100%" overflow="visible" style="display: block;" viewBox="0 0 20 20" fill="none" xmlns="http://www.w3.org/2000/svg">
<g id="32 / moon">
<path id="Vector" d="M7.94556 3.22863C8.06141 3.34426 8.13784 3.49349 8.16396 3.65509C8.19007 3.81668 8.16455 3.98239 8.09102 4.12863C7.54348 5.21733 7.35308 6.45092 7.54687 7.65404C7.74066 8.85716 8.30879 9.96857 9.17049 10.8303C10.0322 11.692 11.1436 12.2601 12.3467 12.4539C13.5498 12.6477 14.7834 12.4573 15.8721 11.9097C16.0183 11.8361 16.184 11.8104 16.3456 11.8364C16.5071 11.8624 16.6564 11.9387 16.7722 12.0544C16.8879 12.1701 16.9642 12.3194 16.9901 12.481C17.0161 12.6426 16.9905 12.8083 16.9168 12.9544C16.3938 13.9933 15.6318 14.8932 14.6934 15.5803C13.7549 16.2674 12.6668 16.7219 11.5185 16.9067C10.3702 17.0914 9.19445 17.001 8.08787 16.643C6.98128 16.2849 5.97546 15.6694 5.15304 14.847C4.33062 14.0245 3.71509 13.0187 3.35703 11.9121C2.99896 10.8055 2.90858 9.62978 3.09332 8.48147C3.27805 7.33316 3.73263 6.24507 4.41969 5.30662C5.10676 4.36817 6.00669 3.60615 7.04555 3.08316C7.19189 3.00945 7.35776 2.98383 7.51951 3.00995C7.68127 3.03607 7.83064 3.1126 7.94634 3.22863H7.94556ZM5.97208 5.85552C5.01477 6.9632 4.51217 8.39216 4.56529 9.85523C4.61842 11.3183 5.22333 12.707 6.25846 13.7424C7.29359 14.7777 8.68221 15.3829 10.1453 15.4363C11.6083 15.4897 13.0374 14.9874 14.1452 14.0302C13.0398 14.163 11.9187 14.0428 10.8665 13.6789C9.81424 13.315 8.85843 12.7169 8.07116 11.9296C7.2839 11.1423 6.68574 10.1865 6.32185 9.1343C5.95795 8.08208 5.83782 6.96095 5.97053 5.85552H5.97208Z" fill="var(--fill-0, #6A667B)"/>
</g>
</svg>
