<svg preserveAspectRatio="none" width="100%" height="100%" overflow="visible" style="display: block;" viewBox="0 0 24 24" fill="none" xmlns="http://www.w3.org/2000/svg">
<g id="24 / notification">
<path id="Vector" d="M10.146 3.24799C10.2954 2.8787 10.5517 2.56244 10.882 2.33976C11.2123 2.11707 11.6016 1.99811 12 1.99811C12.3984 1.99811 12.7877 2.11707 13.118 2.33976C13.4483 2.56244 13.7046 2.8787 13.854 3.24799C15.3328 3.65467 16.6371 4.53554 17.5668 5.75532C18.4964 6.9751 18.9999 8.46633 19 9.99998V14.697L20.832 17.445C20.9325 17.5956 20.9902 17.7706 20.999 17.9515C21.0078 18.1323 20.9673 18.3121 20.8819 18.4718C20.7965 18.6314 20.6693 18.7648 20.514 18.8579C20.3587 18.9509 20.181 19 20 19H15.465C15.3446 19.8331 14.9281 20.5949 14.2917 21.1459C13.6553 21.6969 12.8418 22.0002 12 22.0002C11.1582 22.0002 10.3447 21.6969 9.7083 21.1459C9.07193 20.5949 8.6554 19.8331 8.535 19H4C3.81895 19 3.6413 18.9509 3.48599 18.8579C3.33068 18.7648 3.20353 18.6314 3.11812 18.4718C3.03271 18.3121 2.99224 18.1323 3.00103 17.9515C3.00981 17.7706 3.06752 17.5956 3.168 17.445L5 14.697V9.99998C5 6.77598 7.18 4.05999 10.146 3.24799ZM10.586 19C10.6893 19.2926 10.8808 19.546 11.1341 19.7253C11.3875 19.9045 11.6902 20.0008 12.0005 20.0008C12.3108 20.0008 12.6135 19.9045 12.8669 19.7253C13.1202 19.546 13.3117 19.2926 13.415 19H10.585H10.586ZM12 4.99999C10.6739 4.99999 9.40215 5.52677 8.46446 6.46445C7.52678 7.40213 7 8.6739 7 9.99998V15C7.00004 15.1975 6.94158 15.3906 6.832 15.555L5.869 17H18.13L17.167 15.555C17.0578 15.3905 16.9997 15.1974 17 15V9.99998C17 8.6739 16.4732 7.40213 15.5355 6.46445C14.5978 5.52677 13.3261 4.99999 12 4.99999V4.99999Z" fill="var(--fill-0, #6A667B)"/>
</g>
</svg>
