<svg preserveAspectRatio="none" width="100%" height="100%" overflow="visible" style="display: block;" viewBox="0 0 24 24" fill="none" xmlns="http://www.w3.org/2000/svg">
<g id="Search Icon">
<path id="Vector" d="M11 3C15.4183 3 19 6.58172 19 11C19 13.1038 18.1862 15.0162 16.8584 16.4443L20.707 20.293C21.0976 20.6835 21.0976 21.3165 20.707 21.707C20.3165 22.0976 19.6835 22.0976 19.293 21.707L15.3184 17.7324C14.0724 18.5333 12.5912 19 11 19C6.58172 19 3 15.4183 3 11C3 6.58172 6.58172 3 11 3ZM11 5C7.68629 5 5 7.68629 5 11C5 14.3137 7.68629 17 11 17C14.3137 17 17 14.3137 17 11C17 7.68629 14.3137 5 11 5Z" fill="var(--fill-0, #14131A)"/>
</g>
</svg>
