<svg preserveAspectRatio="none" width="100%" height="100%" overflow="visible" style="display: block;" viewBox="0 0 20 20" fill="none" xmlns="http://www.w3.org/2000/svg">
<g id="32 / sun">
<rect width="20" height="20" rx="4" fill="var(--fill-0, #E7E7E7)"/>
<path id="Vector" d="M10 3C10.1857 3 10.3637 3.07375 10.495 3.20503C10.6262 3.3363 10.7 3.51435 10.7 3.7V4.4C10.7 4.58565 10.6262 4.7637 10.495 4.89497C10.3637 5.02625 10.1857 5.1 10 5.1C9.81435 5.1 9.6363 5.02625 9.50503 4.89497C9.37375 4.7637 9.3 4.58565 9.3 4.4V3.7C9.3 3.51435 9.37375 3.3363 9.50503 3.20503C9.6363 3.07375 9.81435 3 10 3V3ZM14.9497 5.0503C15.0809 5.18157 15.1547 5.35959 15.1547 5.5452C15.1547 5.73081 15.0809 5.90883 14.9497 6.0401L14.4548 6.535C14.3902 6.60186 14.313 6.65518 14.2276 6.69187C14.1422 6.72856 14.0503 6.74787 13.9574 6.74868C13.8644 6.74948 13.7723 6.73177 13.6862 6.69658C13.6002 6.66138 13.522 6.6094 13.4563 6.54368C13.3906 6.47795 13.3386 6.3998 13.3034 6.31377C13.2682 6.22774 13.2505 6.13556 13.2513 6.04262C13.2521 5.94967 13.2714 5.85782 13.3081 5.77242C13.3448 5.68701 13.3981 5.60977 13.465 5.5452L13.9599 5.0503C14.0912 4.91907 14.2692 4.84535 14.4548 4.84535C14.6404 4.84535 14.8184 4.91907 14.9497 5.0503V5.0503ZM5.0503 5.0503C5.18157 4.91907 5.35959 4.84535 5.5452 4.84535C5.73081 4.84535 5.90883 4.91907 6.0401 5.0503L6.535 5.5452C6.66251 5.67722 6.73307 5.85404 6.73147 6.03758C6.72988 6.22112 6.65626 6.39669 6.52647 6.52647C6.39669 6.65626 6.22112 6.72988 6.03758 6.73147C5.85404 6.73307 5.67722 6.66251 5.5452 6.535L5.0503 6.0401C4.91907 5.90883 4.84535 5.73081 4.84535 5.5452C4.84535 5.35959 4.91907 5.18157 5.0503 5.0503V5.0503ZM10 7.2C9.25739 7.2 8.5452 7.495 8.0201 8.0201C7.495 8.5452 7.2 9.25739 7.2 10C7.2 10.7426 7.495 11.4548 8.0201 11.9799C8.5452 12.505 9.25739 12.8 10 12.8C10.7426 12.8 11.4548 12.505 11.9799 11.9799C12.505 11.4548 12.8 10.7426 12.8 10C12.8 9.25739 12.505 8.5452 11.9799 8.0201C11.4548 7.495 10.7426 7.2 10 7.2V7.2ZM5.8 10C5.8 8.88609 6.2425 7.8178 7.03015 7.03015C7.8178 6.2425 8.88609 5.8 10 5.8C11.1139 5.8 12.1822 6.2425 12.9698 7.03015C13.7575 7.8178 14.2 8.88609 14.2 10C14.2 11.1139 13.7575 12.1822 12.9698 12.9698C12.1822 13.7575 11.1139 14.2 10 14.2C8.88609 14.2 7.8178 13.7575 7.03015 12.9698C6.2425 12.1822 5.8 11.1139 5.8 10V10ZM3 10C3 9.81435 3.07375 9.6363 3.20503 9.50503C3.3363 9.37375 3.51435 9.3 3.7 9.3H4.4C4.58565 9.3 4.7637 9.37375 4.89497 9.50503C5.02625 9.6363 5.1 9.81435 5.1 10C5.1 10.1857 5.02625 10.3637 4.89497 10.495C4.7637 10.6262 4.58565 10.7 4.4 10.7H3.7C3.51435 10.7 3.3363 10.6262 3.20503 10.495C3.07375 10.3637 3 10.1857 3 10V10ZM14.9 10C14.9 9.81435 14.9737 9.6363 15.105 9.50503C15.2363 9.37375 15.4143 9.3 15.6 9.3H16.3C16.4857 9.3 16.6637 9.37375 16.795 9.50503C16.9263 9.6363 17 9.81435 17 10C17 10.1857 16.9263 10.3637 16.795 10.495C16.6637 10.6262 16.4857 10.7 16.3 10.7H15.6C15.4143 10.7 15.2363 10.6262 15.105 10.495C14.9737 10.3637 14.9 10.1857 14.9 10ZM5.5452 13.465C5.67722 13.3375 5.85404 13.2669 6.03758 13.2685C6.22112 13.2701 6.39669 13.3437 6.52647 13.4735C6.65626 13.6033 6.72988 13.7789 6.73147 13.9624C6.73307 14.146 6.66251 14.3228 6.535 14.4548L6.0401 14.9497C5.90808 15.0772 5.73126 15.1478 5.54772 15.1462C5.36418 15.1446 5.18861 15.071 5.05883 14.9412C4.92904 14.8114 4.85542 14.6358 4.85383 14.4523C4.85223 14.2687 4.92279 14.0919 5.0503 13.9599L5.5452 13.465ZM13.465 14.4548C13.3375 14.3228 13.2669 14.146 13.2685 13.9624C13.2701 13.7789 13.3437 13.6033 13.4735 13.4735C13.6033 13.3437 13.7789 13.2701 13.9624 13.2685C14.146 13.2669 14.3228 13.3375 14.4548 13.465L14.9497 13.9599C15.0772 14.0919 15.1478 14.2687 15.1462 14.4523C15.1446 14.6358 15.071 14.8114 14.9412 14.9412C14.8114 15.071 14.6358 15.1446 14.4523 15.1462C14.2687 15.1478 14.0919 15.0772 13.9599 14.9497L13.465 14.4548ZM10 14.9C10.1857 14.9 10.3637 14.9737 10.495 15.105C10.6262 15.2363 10.7 15.4143 10.7 15.6V16.3C10.7 16.4857 10.6262 16.6637 10.495 16.795C10.3637 16.9263 10.1857 17 10 17C9.81435 17 9.6363 16.9263 9.50503 16.795C9.37375 16.6637 9.3 16.4857 9.3 16.3V15.6C9.3 15.4143 9.37375 15.2363 9.50503 15.105C9.6363 14.9737 9.81435 14.9 10 14.9V14.9Z" fill="var(--fill-0, #6A667B)"/>
</g>
</svg>
