<svg preserveAspectRatio="none" width="100%" height="100%" overflow="visible" style="display: block;" viewBox="0 0 14 16" fill="none" xmlns="http://www.w3.org/2000/svg">
<path id="Vector" d="M5.55802 0.999797C5.67423 0.704397 5.87357 0.45142 6.13048 0.273292C6.38738 0.0951631 6.69016 0 7 0C7.30984 0 7.61262 0.0951631 7.86952 0.273292C8.12643 0.45142 8.32577 0.704397 8.44198 0.999797C9.5921 1.32511 10.6066 2.02973 11.3296 3.00545C12.0527 3.98117 12.4443 5.17403 12.4444 6.40083V10.158L13.8692 12.3562C13.9474 12.4767 13.9923 12.6167 13.9991 12.7613C14.0059 12.906 13.9744 13.0498 13.908 13.1775C13.8416 13.3052 13.7427 13.412 13.6219 13.4864C13.5011 13.5608 13.3629 13.6001 13.2221 13.6001H9.69496C9.60131 14.2665 9.27734 14.8759 8.7824 15.3166C8.28747 15.7574 7.65469 16 7 16C6.34531 16 5.71253 15.7574 5.2176 15.3166C4.72266 14.8759 4.39869 14.2665 4.30504 13.6001H0.777881C0.637073 13.6001 0.498899 13.5608 0.378103 13.4864C0.257307 13.412 0.158419 13.3052 0.0919907 13.1775C0.025562 13.0498 -0.00591549 12.906 0.000916089 12.7613C0.00774766 12.6167 0.0526321 12.4767 0.130781 12.3562L1.55565 10.158V6.40083C1.55565 3.8219 3.25117 1.64933 5.55802 0.999797ZM5.90024 13.6001C5.98057 13.8342 6.12951 14.0369 6.32655 14.1803C6.52359 14.3236 6.75902 14.4006 7.00039 14.4006C7.24176 14.4006 7.47719 14.3236 7.67423 14.1803C7.87126 14.0369 8.02021 13.8342 8.10054 13.6001H5.90024ZM7 2.40125C5.96862 2.40125 4.97948 2.82263 4.25019 3.5727C3.52089 4.32277 3.11118 5.34007 3.11118 6.40083V10.4004C3.11121 10.5584 3.06574 10.7129 2.98051 10.8444L2.23152 12.0002H11.7677L11.0187 10.8444C10.9338 10.7128 10.8886 10.5583 10.8888 10.4004V6.40083C10.8888 5.34007 10.4791 4.32277 9.74981 3.5727C9.02052 2.82263 8.03138 2.40125 7 2.40125Z" fill="var(--fill-0, #6A667B)"/>
</svg>
