<svg preserveAspectRatio="none" width="100%" height="100%" overflow="visible" style="display: block;" viewBox="0 0 24 24" fill="none" xmlns="http://www.w3.org/2000/svg">
<g id="24 / switch">
<path id="Vector" d="M14.293 2.29303C14.4805 2.10556 14.7348 2.00024 15 2.00024C15.2652 2.00024 15.5195 2.10556 15.707 2.29303L19.707 6.29303C19.8945 6.48056 19.9998 6.73487 19.9998 7.00003C19.9998 7.26519 19.8945 7.5195 19.707 7.70703L15.707 11.707C15.5184 11.8892 15.2658 11.99 15.0036 11.9877C14.7414 11.9854 14.4906 11.8803 14.3052 11.6948C14.1198 11.5094 14.0146 11.2586 14.0123 10.9964C14.01 10.7342 14.1108 10.4816 14.293 10.293L16.586 8.00003H5C4.73478 8.00003 4.48043 7.89467 4.29289 7.70714C4.10536 7.5196 4 7.26525 4 7.00003C4 6.73481 4.10536 6.48046 4.29289 6.29292C4.48043 6.10539 4.73478 6.00003 5 6.00003H16.586L14.293 3.70703C14.1055 3.5195 14.0002 3.26519 14.0002 3.00003C14.0002 2.73487 14.1055 2.48056 14.293 2.29303V2.29303ZM9.707 12.293C9.89447 12.4806 9.99979 12.7349 9.99979 13C9.99979 13.2652 9.89447 13.5195 9.707 13.707L7.414 16H19C19.2652 16 19.5196 16.1054 19.7071 16.2929C19.8946 16.4805 20 16.7348 20 17C20 17.2652 19.8946 17.5196 19.7071 17.7071C19.5196 17.8947 19.2652 18 19 18H7.414L9.707 20.293C9.88916 20.4816 9.98995 20.7342 9.98767 20.9964C9.9854 21.2586 9.88023 21.5094 9.69482 21.6948C9.50941 21.8803 9.2586 21.9854 8.9964 21.9877C8.7342 21.99 8.4816 21.8892 8.293 21.707L4.293 17.707C4.10553 17.5195 4.00021 17.2652 4.00021 17C4.00021 16.7349 4.10553 16.4806 4.293 16.293L8.293 12.293C8.48053 12.1056 8.73484 12.0002 9 12.0002C9.26516 12.0002 9.51947 12.1056 9.707 12.293V12.293Z" fill="var(--fill-0, #6A667B)"/>
</g>
</svg>
