<svg preserveAspectRatio="none" width="100%" height="100%" overflow="visible" style="display: block;" viewBox="0 0 18 18" fill="none" xmlns="http://www.w3.org/2000/svg">
<g id="32/ thumbs-up-feedback">
<path id="Vector" d="M3.204 7.26596C3.276 7.32593 3.303 7.40589 3.303 7.51582V17.5902C3.303 17.7002 3.267 17.7901 3.204 17.8601C3.132 17.94 3.06 17.97 2.979 17.97H0.324C0.243 17.97 0.162 17.93 0.099 17.8601C0.027 17.7801 0 17.6902 0 17.5902C0 17.5702 0 17.5702 0.018 17.5702V7.51582C0.018 7.42587 0.045 7.34592 0.099 7.26596C0.171 7.18601 0.252 7.15602 0.342 7.15602H2.979C3.06 7.15602 3.141 7.196 3.204 7.26596ZM17.406 6.92615C17.037 6.50638 16.578 6.28651 16.029 6.28651H11.637C11.538 6.28651 11.457 6.24653 11.394 6.17657C11.34 6.09661 11.313 6.00666 11.313 5.90672V5.83676L12.015 2.17879V1.90894C12.015 1.70905 11.979 1.52915 11.916 1.35924C11.853 1.18934 11.754 1.04942 11.646 0.929484L10.782 0L5.445 5.91671C5.31 6.08662 5.193 6.27651 5.094 6.4864C5.013 6.69628 4.968 6.92615 4.968 7.16602V15.8112C4.968 16.4209 5.157 16.9306 5.544 17.3604C5.931 17.7801 6.399 18 6.948 18H13.941C14.283 18 14.589 17.9001 14.85 17.7002C15.129 17.4903 15.318 17.2204 15.426 16.9006L15.444 16.8806L17.901 10.5541C17.946 10.4442 17.973 10.3443 17.982 10.2343C18 10.1244 18 10.0144 18 9.8945V8.4653C18 7.87562 17.811 7.36591 17.424 6.94614L17.406 6.92615Z" fill="var(--fill-0, #00E4C9)"/>
</g>
</svg>
